<?xml version="1.0" standalone="no"?>
<!DOCTYPE svg PUBLIC "-//W3C//DTD SVG 20010904//EN"
 "http://www.w3.org/TR/2001/REC-SVG-20010904/DTD/svg10.dtd">
<svg version="1.0" xmlns="http://www.w3.org/2000/svg"
 width="406.000000pt" height="631.000000pt" viewBox="0 0 406.000000 631.000000"
 preserveAspectRatio="xMidYMid meet">

<g transform="translate(0.000000,631.000000) scale(0.100000,-0.100000)"
fill="#000000" stroke="none">
<path d="M0 3155 l0 -3155 2030 0 2030 0 0 3155 0 3155 -2030 0 -2030 0 0
-3155z m4030 3020 l0 -125 -2000 0 -2000 0 0 125 0 125 2000 0 2000 0 0 -125z
m-770 -770 l0 -495 -1090 0 -1090 0 0 495 0 495 1090 0 1090 0 0 -495z m-3243
-447 c-3 -8 -6 -5 -6 6 -1 11 2 17 5 13 3 -3 4 -12 1 -19z m1032 -724 c24 -64
24 -64 12 -64 -5 0 -13 9 -16 20 -4 13 -15 20 -32 20 -16 0 -27 -7 -30 -20 -4
-17 -23 -29 -23 -16 0 20 46 116 55 116 7 0 22 -25 34 -56z m101 -4 l0 -60
-30 0 c-22 0 -33 6 -41 24 -14 30 3 66 31 66 11 0 20 7 20 15 0 8 5 15 10 15
6 0 10 -27 10 -60z m90 0 l0 -60 -30 0 c-22 0 -33 6 -41 24 -14 30 3 66 31 66
11 0 20 7 20 15 0 8 5 15 10 15 6 0 10 -27 10 -60z m750 0 l0 -60 -30 0 c-22
0 -33 6 -41 24 -14 30 3 66 31 66 11 0 20 7 20 15 0 8 5 15 10 15 6 0 10 -27
10 -60z m165 50 c-3 -5 -11 -10 -16 -10 -6 0 -7 5 -4 10 3 6 11 10 16 10 6 0
7 -4 4 -10z m242 -82 c-2 -18 -4 -4 -4 32 0 36 2 50 4 33 2 -18 2 -48 0 -65z
m168 82 c-3 -5 -11 -10 -16 -10 -6 0 -7 5 -4 10 3 6 11 10 16 10 6 0 7 -4 4
-10z m56 -2 c4 -88 3 -108 -7 -108 -12 0 -22 70 -16 103 4 20 22 23 23 5z m48
-10 c-1 -13 -5 -36 -9 -53 -7 -26 -8 -22 -9 23 0 29 3 52 9 52 6 0 9 -10 9
-22z m-1251 -55 c2 -26 -1 -43 -7 -43 -6 0 -11 18 -11 41 0 53 -23 48 -31 -7
l-6 -39 -2 37 c-1 35 -15 57 -28 44 -3 -3 -9 -23 -13 -43 l-8 -38 -1 46 -1 46
53 -1 52 -1 3 -42z m90 20 c3 -18 -2 -22 -27 -25 -24 -2 -29 -6 -21 -18 8 -13
13 -13 31 -2 18 11 20 11 17 0 -3 -7 -17 -13 -33 -13 -32 0 -47 27 -34 63 12
32 62 28 67 -5z m92 -21 c0 -26 -5 -53 -12 -60 -14 -14 -58 -16 -58 -3 0 4 11
6 25 3 15 -2 25 0 25 7 0 6 -9 11 -20 11 -12 0 -25 10 -31 24 -16 35 3 66 41
66 29 0 30 -1 30 -48z m138 2 c3 -40 3 -41 -30 -40 -26 1 -34 6 -36 22 -2 16
4 23 22 28 15 3 26 11 26 16 0 14 -24 12 -38 -2 -7 -7 -12 -8 -12 -2 0 18 13
25 40 22 22 -3 25 -9 28 -44z m84 14 l12 -33 13 34 c8 18 16 31 19 28 8 -8
-18 -87 -28 -87 -9 0 -38 61 -38 80 0 20 11 9 22 -22z m78 -13 c0 -25 -4 -45
-10 -45 -5 0 -10 20 -10 45 0 25 5 45 10 45 6 0 10 -20 10 -45z m178 18 c3
-18 -2 -22 -27 -25 -24 -2 -29 -6 -21 -18 8 -13 13 -13 31 -2 18 11 20 11 17
0 -3 -7 -17 -13 -33 -13 -32 0 -47 27 -34 63 12 32 62 28 67 -5z m87 -18 c0
-38 -2 -40 -30 -40 -26 0 -30 4 -33 28 -5 44 4 59 35 55 25 -3 28 -7 28 -43z
m95 5 c0 -29 4 -40 15 -40 11 0 15 11 15 40 0 22 5 40 10 40 6 0 10 -21 10
-46 0 -45 0 -45 -32 -42 -31 3 -33 6 -36 46 -2 25 1 42 7 42 6 0 11 -18 11
-40z m108 29 c-12 -6 -18 -22 -18 -44 0 -19 -4 -35 -10 -35 -5 0 -10 20 -10
45 0 42 2 45 28 45 23 -1 24 -2 10 -11z m122 -49 c0 -50 -3 -60 -17 -60 -13 0
-14 3 -5 12 7 7 12 34 12 60 0 26 2 48 5 48 3 0 5 -27 5 -60z m88 33 c3 -18
-2 -22 -27 -25 -24 -2 -29 -6 -21 -18 8 -13 13 -13 31 -2 18 11 20 11 17 0 -3
-7 -17 -13 -33 -13 -32 0 -47 27 -34 63 12 32 62 28 67 -5z m-120 -20 c-10 -2
-26 -2 -35 0 -10 3 -2 5 17 5 19 0 27 -2 18 -5z m912 -258 l0 -95 -1220 0
-1220 0 0 95 0 95 1220 0 1220 0 0 -95z m-1910 -730 l0 -135 -190 0 -190 0 0
135 0 135 190 0 190 0 0 -135z m808 118 l-628 -3 -3 -273 -2 -272 -3 278 -2
277 633 -2 632 -3 -627 -2z m-2251 -95 c-3 -8 -6 -5 -6 6 -1 11 2 17 5 13 3
-3 4 -12 1 -19z m1783 -130 l0 -52 28 27 c39 37 64 35 28 -2 l-28 -29 26 -38
c29 -43 32 -54 13 -54 -7 0 -21 16 -31 35 -11 19 -23 35 -28 35 -4 0 -8 -16
-8 -35 0 -24 -5 -35 -15 -35 -12 0 -15 18 -15 100 0 82 3 100 15 100 11 0 15
-12 15 -52z m724 -1 c8 -6 8 -10 -1 -14 -20 -7 -17 -113 2 -113 8 0 15 -4 15
-10 0 -16 -47 -11 -54 6 -3 9 -6 37 -6 64 0 76 -22 71 -49 -12 -33 -101 -47
-92 -95 60 -6 16 -3 22 8 22 10 0 21 -20 32 -57 l17 -58 19 58 c17 48 23 57
44 57 17 0 24 6 24 19 0 27 24 33 29 7 1 -12 8 -25 15 -29z m111 33 c-10 -11
-21 -20 -26 -20 -4 0 -5 9 -2 20 3 12 14 20 26 20 19 0 20 -1 2 -20z m-675
-10 c0 -5 -7 -10 -15 -10 -8 0 -15 5 -15 10 0 6 7 10 15 10 8 0 15 -4 15 -10z
m50 0 c0 -5 -7 -10 -15 -10 -8 0 -15 5 -15 10 0 6 7 10 15 10 8 0 15 -4 15
-10z m4 -42 c38 -53 6 -128 -53 -128 -36 0 -61 31 -61 75 0 46 25 75 65 75 24
0 39 -7 49 -22z m143 10 c20 -16 18 -138 -2 -138 -12 0 -15 13 -15 60 0 47 -4
62 -16 67 -25 9 -44 -24 -44 -79 0 -26 -4 -48 -10 -48 -6 0 -10 31 -10 73 l0
73 42 1 c23 1 48 -3 55 -9z m83 -33 c7 -25 16 -48 20 -50 4 -3 13 16 20 40 12
44 26 63 37 52 6 -6 -32 -128 -54 -169 -13 -28 -46 -38 -58 -18 -3 6 1 10 9
10 32 0 35 32 10 101 -28 78 -28 79 -10 79 7 0 19 -20 26 -45z m418 33 c5 -7
12 -40 14 -74 l4 -61 -52 -1 c-57 -1 -78 12 -72 49 3 24 18 35 61 44 15 3 27
10 27 16 0 17 -30 22 -56 9 -30 -16 -41 -8 -19 14 19 19 78 21 93 4z m122 -3
c0 -8 -6 -12 -14 -9 -21 8 -36 -27 -36 -80 0 -25 -4 -46 -10 -46 -6 0 -10 31
-10 73 l0 74 35 1 c24 1 35 -3 35 -13z m-1320 -190 l0 -135 -190 0 -190 0 0
135 0 135 190 0 190 0 0 -135z m628 -672 l-1148 -3 -3 -518 -2 -517 -3 523 -2
522 1153 -2 1152 -3 -1147 -2z m556 -315 c-16 -30 -49 -58 -66 -58 -17 0 -17
2 -1 35 13 28 22 35 45 35 21 0 27 -4 22 -12z m-1394 -168 l0 -170 90 0 c83 0
90 -1 90 -20 0 -19 -7 -20 -115 -20 l-115 0 0 190 0 190 25 0 25 0 0 -170z
m1010 -20 l0 -190 -25 0 -25 0 0 190 0 190 25 0 25 0 0 -190z m-430 135 c0
-41 2 -45 25 -45 18 0 25 -5 25 -20 0 -15 -7 -20 -25 -20 l-26 0 3 -97 c3 -92
4 -98 24 -101 12 -2 24 -12 27 -23 4 -16 0 -19 -33 -19 -59 0 -70 23 -70 142
0 80 -3 98 -15 98 -8 0 -15 9 -15 20 0 11 7 20 15 20 10 0 15 11 15 35 0 22 6
38 18 44 28 17 32 13 32 -34z m180 20 c0 -20 -5 -25 -25 -25 -20 0 -25 5 -25
25 0 20 5 25 25 25 20 0 25 -5 25 -25z m100 0 c0 -20 -5 -25 -25 -25 -20 0
-25 5 -25 25 0 20 5 25 25 25 20 0 25 -5 25 -25z m270 -20 c0 -41 2 -45 25
-45 18 0 25 -5 25 -20 0 -15 -7 -20 -25 -20 l-26 0 3 -97 c3 -92 4 -98 24
-101 12 -2 24 -12 27 -23 4 -16 0 -19 -33 -19 -59 0 -70 23 -70 142 0 80 -3
98 -15 98 -8 0 -15 9 -15 20 0 11 7 20 15 20 10 0 15 11 15 35 0 22 6 38 18
44 28 17 32 13 32 -34z m-715 -57 c30 -24 55 -74 55 -113 l0 -25 -100 0 c-94
0 -100 -1 -100 -20 0 -29 44 -70 75 -70 15 0 37 11 52 26 19 19 32 24 49 20
20 -5 23 -10 14 -25 -20 -38 -61 -61 -107 -61 -93 0 -139 56 -131 160 4 57 8
66 41 96 46 42 108 47 152 12z m452 -12 c33 -30 37 -39 41 -93 7 -103 -38
-163 -123 -163 -80 0 -128 54 -128 145 0 93 46 144 131 145 34 0 49 -6 79 -34z
m538 12 c30 -24 55 -74 55 -113 l0 -25 -100 0 c-94 0 -100 -1 -100 -20 0 -29
44 -70 75 -70 15 0 37 11 52 26 19 19 32 24 49 20 20 -5 23 -10 14 -25 -20
-38 -61 -61 -107 -61 -93 0 -139 56 -131 160 4 57 8 66 41 96 46 42 108 47
152 12z m274 7 c33 -17 47 -45 29 -57 -20 -12 -32 -10 -51 12 -27 32 -107 21
-107 -15 0 -18 21 -29 85 -44 91 -22 121 -80 72 -137 -20 -23 -34 -28 -85 -32
-58 -4 -63 -3 -92 27 -17 17 -30 39 -28 48 4 23 48 31 48 9 0 -39 84 -61 115
-30 28 29 14 47 -55 67 -110 32 -138 81 -81 138 24 24 38 29 76 29 25 0 59 -7
74 -15z m1001 -1185 l0 -110 -1900 0 -1900 0 0 110 0 110 1900 0 1900 0 0
-110z"/>
<path d="M89 6231 c-16 -16 -29 -39 -29 -51 0 -27 52 -80 79 -80 34 0 74 43
74 80 0 24 -7 40 -27 57 -36 31 -61 29 -97 -6z m91 4 c0 -2 -5 -15 -11 -29
-12 -26 -33 -27 -23 -2 3 8 1 17 -5 21 -6 3 -15 -5 -21 -19 -13 -34 -20 -33
-20 4 0 28 2 30 40 30 22 0 40 -2 40 -5z"/>
<path d="M285 6203 c8 -18 15 -40 15 -50 1 -13 29 48 30 65 0 1 9 2 20 2 17 0
20 -7 22 -42 l1 -43 4 40 c3 22 10 43 16 47 7 4 -5 8 -25 8 -31 0 -40 -5 -52
-27 -8 -16 -15 -23 -16 -17 0 5 -7 19 -15 30 -14 17 -14 16 0 -13z"/>
<path d="M412 6218 c-28 -28 -7 -79 32 -77 18 1 17 2 -4 8 -19 5 -25 13 -25
36 0 23 6 31 25 36 21 6 22 7 5 8 -12 1 -26 -4 -33 -11z"/>
<path d="M480 6185 c0 -37 3 -45 18 -45 10 0 23 5 30 12 17 17 15 65 -4 72
-36 14 -44 7 -44 -39z m45 0 c0 -20 -6 -31 -17 -33 -15 -3 -18 4 -18 33 0 29
3 36 18 33 11 -2 17 -13 17 -33z"/>
<path d="M3769 6208 l24 -28 -24 -27 -24 -28 28 24 27 24 28 -24 27 -24 -24
28 -24 27 24 28 24 27 -27 -24 -28 -24 -27 24 -28 24 24 -27z"/>
<path d="M2863 6173 c15 -2 39 -2 55 0 15 2 2 4 -28 4 -30 0 -43 -2 -27 -4z"/>
<path d="M1100 5405 l0 -475 1070 0 1070 0 0 475 0 475 -1070 0 -1070 0 0
-475z m220 276 l26 -60 49 60 49 59 298 0 c203 0 298 -3 298 -11 0 -5 -5 -41
-11 -80 l-12 -69 -66 0 -67 0 -33 -192 c-18 -106 -35 -201 -37 -210 -5 -15
-18 -18 -90 -18 -46 0 -84 2 -84 5 0 3 16 94 35 202 19 108 35 201 35 205 0 4
-30 8 -66 8 -57 0 -65 2 -60 18 9 30 18 112 13 112 -4 0 -141 -166 -175 -212
-7 -10 -24 -80 -37 -155 -14 -76 -27 -148 -30 -160 -5 -22 -10 -23 -91 -23
l-85 0 6 33 c3 17 16 90 29 162 l23 130 -49 105 c-79 168 -82 150 20 150 l87
0 25 -59z"/>
<path d="M1006 4255 c-10 -26 -7 -35 9 -35 17 0 19 18 6 38 -7 11 -10 10 -15
-3z"/>
<path d="M1094 4236 c-9 -24 0 -51 19 -54 15 -3 18 2 15 29 -3 35 -24 51 -34
25z"/>
<path d="M1184 4236 c-9 -24 0 -51 19 -54 15 -3 18 2 15 29 -3 35 -24 51 -34
25z"/>
<path d="M1934 4236 c-9 -24 0 -51 19 -54 15 -3 18 2 15 29 -3 35 -24 51 -34
25z"/>
<path d="M1456 4235 c-4 -11 1 -15 19 -15 18 0 23 4 19 15 -4 8 -12 15 -19 15
-7 0 -15 -7 -19 -15z"/>
<path d="M1544 4236 c-9 -23 0 -51 16 -51 10 0 15 10 15 29 0 32 -21 47 -31
22z"/>
<path d="M1696 4207 c-14 -10 -16 -16 -7 -22 15 -9 35 8 30 24 -3 8 -10 7 -23
-2z"/>
<path d="M2026 4235 c-4 -11 1 -15 19 -15 18 0 23 4 19 15 -4 8 -12 15 -19 15
-7 0 -15 -7 -19 -15z"/>
<path d="M2115 4231 c-7 -23 3 -51 20 -51 7 0 16 7 19 16 9 23 -2 54 -19 54
-8 0 -16 -8 -20 -19z"/>
<path d="M2526 4235 c-4 -11 1 -15 19 -15 18 0 23 4 19 15 -4 8 -12 15 -19 15
-7 0 -15 -7 -19 -15z"/>
<path d="M940 3955 c0 -43 4 -75 10 -75 6 0 10 32 10 75 0 43 -4 75 -10 75 -6
0 -10 -32 -10 -75z"/>
<path d="M1150 3218 c0 -28 2 -49 4 -47 8 9 13 99 5 99 -5 0 -9 -23 -9 -52z"/>
<path d="M1209 3230 c-8 -28 -15 -37 -21 -28 -6 10 -8 9 -8 -4 0 -35 20 -27
32 14 l13 43 6 -45 6 -45 1 53 c2 62 -12 68 -29 12z"/>
<path d="M1261 3218 c1 -29 4 -43 6 -31 3 15 13 23 31 25 21 2 27 8 27 28 0
21 -5 26 -32 28 l-33 3 1 -53z m59 22 c0 -15 -7 -20 -25 -20 -18 0 -25 5 -25
20 0 15 7 20 25 20 18 0 25 -5 25 -20z"/>
<path d="M1356 3261 c-3 -5 3 -7 14 -4 22 6 29 -22 8 -30 -10 -4 -10 -6 0 -6
6 -1 12 -11 12 -22 0 -17 -5 -20 -21 -16 -16 4 -19 3 -11 -5 6 -6 18 -8 26 -5
23 9 18 90 -6 95 -9 2 -19 -1 -22 -7z"/>
<path d="M1942 3088 c-17 -17 -15 -73 4 -89 23 -19 48 1 52 40 5 50 -27 78
-56 49z"/>
<path d="M2583 3024 c-3 -8 0 -21 6 -27 14 -14 44 2 49 27 5 22 -46 22 -55 0z"/>
<path d="M1150 2908 c0 -28 2 -49 4 -47 8 9 13 99 5 99 -5 0 -9 -23 -9 -52z"/>
<path d="M1209 2920 c-8 -28 -15 -37 -21 -28 -6 10 -8 9 -8 -4 0 -35 20 -27
32 14 l13 43 6 -45 6 -45 1 53 c2 62 -12 68 -29 12z"/>
<path d="M1261 2908 c1 -29 4 -43 6 -31 3 15 13 23 31 25 21 2 27 8 27 28 0
21 -5 26 -32 28 l-33 3 1 -53z m59 22 c0 -15 -7 -20 -25 -20 -18 0 -25 5 -25
20 0 15 7 20 25 20 18 0 25 -5 25 -20z"/>
<path d="M1371 2941 c-7 -13 -8 -21 -2 -17 7 4 11 -1 11 -13 0 -12 -7 -21 -16
-21 -9 0 -12 5 -8 12 4 7 3 8 -4 4 -18 -11 -14 -26 7 -26 11 0 21 -5 23 -12 8
-24 14 17 8 57 -5 39 -6 40 -19 16z"/>
<path d="M1545 1775 c-45 -44 -34 -55 51 -55 73 0 75 1 69 23 -17 56 -79 74
-120 32z"/>
<path d="M1993 1785 c-31 -21 -45 -79 -33 -127 19 -67 80 -88 125 -43 21 20
25 34 25 80 0 46 -4 60 -25 80 -28 29 -61 32 -92 10z"/>
<path d="M2535 1775 c-45 -44 -34 -55 51 -55 73 0 75 1 69 23 -17 56 -79 74
-120 32z"/>
</g>
</svg>
